<svg xmlns="http://www.w3.org/2000/svg" style="display: none">
<symbol id="icon-burger-menu" viewBox="0 0 32 32">
<path d="M5.333 6.667c-0.736 0-1.333 0.597-1.333 1.333s0.597 1.333 1.333 1.333h21.333c0.736 0 1.333-0.597 1.333-1.333s-0.597-1.333-1.333-1.333h-21.333zM9.333 16c0-0.736 0.597-1.333 1.333-1.333h16c0.736 0 1.333 0.597 1.333 1.333s-0.597 1.333-1.333 1.333h-16c-0.736 0-1.333-0.597-1.333-1.333zM17.333 24c0-0.736 0.597-1.333 1.333-1.333h8c0.736 0 1.333 0.597 1.333 1.333s-0.597 1.333-1.333 1.333h-8c-0.736 0-1.333-0.597-1.333-1.333z"></path>
</symbol>
<symbol id="icon-cancel-circle" viewBox="0 0 32 32">
<path d="M16 0c-8.837 0-16 7.163-16 16s7.163 16 16 16 16-7.163 16-16-7.163-16-16-16zM16 29c-7.18 0-13-5.82-13-13s5.82-13 13-13 13 5.82 13 13-5.82 13-13 13z"></path>
<path d="M21 8l-5 5-5-5-3 3 5 5-5 5 3 3 5-5 5 5 3-3-5-5 5-5z"></path>
</symbol>
<symbol id="icon-logo" viewBox="0 0 67 32">
<path d="M18.837 0h-12.792c-3.335 0-6.045 2.708-6.045 6.037v11.729c0 7.848 6.363 14.234 14.211 14.234h3.816v-3.56h-3.816c-5.869 0-10.648-4.764-10.671-10.628v0.020s0.020-11.792 0.020-11.792c0-1.366 1.116-2.477 2.485-2.477h12.792c1.369 0 2.485 1.111 2.485 2.477v12.774c0 1.366-1.116 2.477-2.485 2.477h-4.769v0.005c-2.066-0.11-3.713-1.798-3.713-3.861s1.76-3.869 3.926-3.871v4.215h3.55v-10.693h-10.701v3.55h4.137c-2.633 1.153-4.473 3.766-4.473 6.8 0 4.097 3.36 7.416 7.492 7.416h4.553c3.332 0 6.045-2.708 6.045-6.037v-12.777c0-3.33-2.71-6.037-6.045-6.037z"></path>
<path d="M33.487 7.968c-0.391 0.552-0.943 0.993-1.808 0.993-1.244 0-2.46-0.993-2.46-2.75v-0.020c0-1.758 1.193-2.75 2.46-2.75 0.873 0 1.427 0.431 1.808 0.933v-0.822h1.214v6.905h-1.214v-2.49zM33.507 6.21v-0.020c0-1.023-0.722-1.697-1.534-1.697s-1.527 0.642-1.527 1.697v0.020c0 1.023 0.702 1.697 1.527 1.697s1.534-0.682 1.534-1.697z"></path>
<path d="M36.267 6.923v-3.372h1.214v3.011c0 0.822 0.411 1.284 1.133 1.284s1.193-0.481 1.193-1.304v-2.991h1.224v5.3h-1.224v-0.822c-0.341 0.501-0.832 0.933-1.657 0.933-1.193 0-1.888-0.802-1.888-2.038z"></path>
<path d="M42.36 6.22v-0.020c0-1.514 1.073-2.76 2.59-2.76 1.687 0 2.54 1.324 2.54 2.851 0 0.11-0.010 0.221-0.020 0.341h-3.894c0.13 0.862 0.742 1.344 1.527 1.344 0.592 0 1.013-0.221 1.434-0.632l0.712 0.632c-0.501 0.602-1.193 0.993-2.169 0.993-1.534 0-2.72-1.113-2.72-2.75zM46.284 5.829c-0.080-0.782-0.542-1.394-1.346-1.394-0.742 0-1.264 0.572-1.374 1.394h2.72z"></path>
<path d="M48.382 8.159l0.542-0.822c0.582 0.431 1.193 0.652 1.738 0.652s0.822-0.221 0.822-0.572v-0.020c0-0.411-0.562-0.552-1.183-0.742-0.782-0.221-1.657-0.542-1.657-1.554v-0.020c0-1.003 0.832-1.617 1.888-1.617 0.662 0 1.384 0.231 1.948 0.602l-0.481 0.862c-0.511-0.311-1.053-0.501-1.494-0.501-0.471 0-0.742 0.221-0.742 0.521v0.020c0 0.391 0.572 0.552 1.193 0.752 0.772 0.241 1.647 0.592 1.647 1.544v0.020c0 1.113-0.862 1.667-1.968 1.667-0.752 0-1.585-0.271-2.249-0.792z"></path>
<path d="M54.425 7.386v-2.791h-0.672v-1.043h0.672v-1.454h1.214v1.454h1.424v1.043h-1.424v2.6c0 0.471 0.241 0.662 0.652 0.662 0.271 0 0.511-0.060 0.752-0.181v0.993c-0.301 0.171-0.632 0.271-1.093 0.271-0.893 0-1.524-0.391-1.524-1.557z"></path>
<path d="M29.142 15.322v-0.020c0-1.143 0.893-1.707 2.189-1.707 0.592 0 1.013 0.090 1.424 0.221v-0.13c0-0.752-0.461-1.153-1.314-1.153-0.592 0-1.033 0.13-1.517 0.331l-0.321-0.953c0.582-0.261 1.153-0.431 1.998-0.431 0.792 0 1.384 0.211 1.758 0.592 0.391 0.381 0.572 0.943 0.572 1.637v3.142h-1.183v-0.662c-0.361 0.431-0.913 0.772-1.727 0.772-0.993 0-1.878-0.572-1.878-1.637zM32.775 14.941v-0.361c-0.311-0.12-0.722-0.211-1.203-0.211-0.782 0-1.244 0.331-1.244 0.883v0.020c0 0.511 0.451 0.802 1.033 0.802 0.802 0 1.417-0.461 1.417-1.133z"></path>
<path d="M35.475 17.842l0.451-0.913c0.572 0.351 1.163 0.562 1.888 0.562 1.083 0 1.675-0.562 1.675-1.627v-0.411c-0.441 0.572-0.993 0.973-1.868 0.973-1.244 0-2.409-0.923-2.409-2.48v-0.020c0-1.567 1.173-2.49 2.409-2.49 0.893 0 1.447 0.411 1.858 0.903v-0.792h1.214v4.215c0 0.893-0.231 1.557-0.672 1.998-0.481 0.481-1.224 0.712-2.179 0.712-0.873 0-1.687-0.221-2.369-0.632zM39.499 13.935v-0.020c0-0.863-0.712-1.454-1.557-1.454s-1.504 0.582-1.504 1.454v0.020c0 0.863 0.672 1.454 1.504 1.454s1.557-0.592 1.557-1.454z"></path>
<path d="M42.32 11.548h1.214v1.193c0.331-0.792 0.943-1.336 1.878-1.296v1.284h-0.070c-1.063 0-1.808 0.692-1.808 2.099v2.018h-1.214v-5.3z"></path>
<path d="M46.093 14.229v-0.020c0-1.514 1.203-2.771 2.831-2.771s2.821 1.234 2.821 2.75v0.020c0 1.504-1.203 2.76-2.841 2.76s-2.811-1.234-2.811-2.74zM50.531 14.229v-0.020c0-0.933-0.672-1.707-1.627-1.707s-1.595 0.762-1.595 1.687v0.020c0 0.923 0.672 1.697 1.615 1.697s1.607-0.762 1.607-1.675z"></path>
<path d="M29.483 25.837l0.451-0.913c0.572 0.351 1.163 0.562 1.888 0.562 1.083 0 1.677-0.562 1.677-1.627v-0.411c-0.441 0.572-0.993 0.973-1.868 0.973-1.244 0-2.409-0.923-2.409-2.48v-0.020c0-1.565 1.173-2.49 2.409-2.49 0.893 0 1.447 0.411 1.858 0.903v-0.792h1.214v4.215c0 0.893-0.231 1.557-0.672 1.998-0.481 0.481-1.224 0.712-2.179 0.712-0.873 0-1.687-0.221-2.369-0.632zM33.507 21.933v-0.020c0-0.863-0.712-1.457-1.557-1.457s-1.504 0.582-1.504 1.457v0.020c0 0.863 0.672 1.454 1.504 1.454s1.557-0.592 1.557-1.454z"></path>
<path d="M36.328 19.544h1.214v1.193c0.331-0.792 0.943-1.334 1.878-1.294v1.284h-0.070c-1.063 0-1.808 0.692-1.808 2.099v2.018h-1.214v-5.3z"></path>
<path d="M40.101 22.224v-0.020c0-1.517 1.203-2.771 2.831-2.771s2.821 1.234 2.821 2.75v0.020c0 1.504-1.206 2.76-2.841 2.76s-2.811-1.234-2.811-2.74zM44.539 22.224v-0.020c0-0.933-0.672-1.707-1.627-1.707s-1.595 0.762-1.595 1.687v0.020c0 0.923 0.672 1.697 1.617 1.697s1.607-0.762 1.607-1.675z"></path>
<path d="M47.028 22.916v-3.372h1.214v3.011c0 0.822 0.411 1.284 1.133 1.284s1.193-0.481 1.193-1.306v-2.991h1.224v5.3h-1.224v-0.822c-0.341 0.501-0.832 0.933-1.655 0.933-1.193 0-1.888-0.802-1.888-2.038z"></path>
<path d="M53.412 19.544h1.214v0.883c0.391-0.552 0.943-0.993 1.808-0.993 1.244 0 2.46 0.983 2.46 2.75v0.020c0 1.758-1.203 2.75-2.46 2.75-0.883 0-1.437-0.441-1.808-0.933v2.43h-1.214v-6.905zM57.657 22.204v-0.020c0-1.023-0.692-1.697-1.517-1.697s-1.547 0.682-1.547 1.697v0.020c0 1.015 0.722 1.697 1.547 1.697s1.517-0.652 1.517-1.697z"></path>
<path d="M22.001 30.992v-1.361h-0.752v1.361h-0.226v-1.557h1.206v1.557h-0.228z"></path>
<path d="M24.092 30.834c-0.113 0.115-0.268 0.178-0.446 0.178s-0.333-0.063-0.446-0.178c-0.133-0.135-0.191-0.321-0.191-0.619s0.058-0.484 0.191-0.619c0.113-0.113 0.268-0.178 0.446-0.178s0.333 0.063 0.446 0.178c0.133 0.133 0.191 0.321 0.191 0.612 0 0.311-0.055 0.491-0.191 0.629zM23.932 29.733c-0.070-0.073-0.173-0.113-0.286-0.113s-0.213 0.040-0.281 0.113c-0.093 0.093-0.125 0.228-0.125 0.481s0.035 0.386 0.125 0.481c0.070 0.073 0.171 0.113 0.281 0.113s0.216-0.040 0.286-0.113c0.088-0.093 0.123-0.226 0.123-0.471 0-0.266-0.033-0.399-0.123-0.491z"></path>
<path d="M25.067 30.992v-1.557h0.226v1.361h0.639v-1.361h0.228v1.361h0.639v-1.361h0.228v1.557h-1.958z"></path>
<path d="M28.282 31.368c-0.073 0.198-0.203 0.291-0.414 0.291h-0.098v-0.203h0.070c0.148 0 0.201-0.038 0.256-0.193l0.11-0.303-0.559-1.524h0.246l0.429 1.251 0.424-1.251h0.246l-0.71 1.933z"></path>
<path d="M30.641 30.992l-0.509-0.755-0.291 0.328v0.424h-0.228v-1.557h0.228v0.837l0.727-0.837h0.281l-0.564 0.637 0.639 0.92h-0.283z"></path>
<path d="M33.67 30.834c-0.113 0.115-0.268 0.178-0.446 0.178s-0.333-0.063-0.446-0.178c-0.133-0.135-0.191-0.321-0.191-0.619s0.058-0.484 0.191-0.619c0.115-0.113 0.268-0.178 0.446-0.178s0.333 0.063 0.446 0.178c0.133 0.133 0.191 0.321 0.191 0.612 0 0.311-0.053 0.491-0.191 0.629zM33.507 29.733c-0.070-0.073-0.173-0.113-0.283-0.113s-0.213 0.040-0.281 0.113c-0.093 0.093-0.125 0.228-0.125 0.481s0.035 0.386 0.125 0.481c0.070 0.073 0.17 0.113 0.281 0.113s0.216-0.040 0.283-0.113c0.088-0.093 0.123-0.226 0.123-0.471 0-0.266-0.033-0.399-0.123-0.491z"></path>
<path d="M35.623 30.992v-1.361h-0.752v1.361h-0.226v-1.557h1.206v1.557h-0.228z"></path>
<path d="M37.228 29.631v1.361h-0.228v-1.361h-0.534v-0.196h1.271v0.196h-0.509z"></path>
<path d="M39.376 30.992v-1.206l-0.8 1.206h-0.226v-1.557h0.226v1.198l0.8-1.198h0.228v1.557h-0.228z"></path>
<path d="M41.746 30.992v-1.108l-0.434 0.86h-0.175l-0.439-0.86v1.108h-0.226v-1.557h0.226l0.529 1.048 0.522-1.048h0.226v1.557h-0.228z"></path>
<path d="M43.724 30.992v-0.148c-0.075 0.073-0.113 0.103-0.178 0.128-0.073 0.030-0.155 0.040-0.276 0.040-0.361 0-0.554-0.16-0.554-0.459 0-0.281 0.203-0.449 0.539-0.449h0.469v-0.148c0-0.238-0.123-0.341-0.409-0.341-0.1 0-0.178 0.015-0.241 0.048-0.055 0.025-0.085 0.053-0.143 0.13l-0.155-0.143c0.083-0.095 0.12-0.13 0.196-0.168 0.088-0.045 0.201-0.063 0.349-0.063 0.416 0 0.629 0.173 0.629 0.519v1.058h-0.228zM43.724 30.275h-0.436c-0.231 0-0.349 0.093-0.349 0.276s0.113 0.266 0.376 0.266c0.291 0 0.409-0.108 0.409-0.374v-0.168z"></path>
<path d="M45.777 30.992v-1.361h-0.557l-0.020 0.722c-0.013 0.466-0.211 0.639-0.491 0.639h-0.13v-0.196h0.073c0.135 0 0.311-0.060 0.323-0.506l0.023-0.855h1.005v1.557h-0.228z"></path>
<path d="M47.57 30.992h-0.692v-1.557h0.226v0.617h0.469c0.298 0 0.494 0.186 0.494 0.471s-0.196 0.469-0.494 0.469zM47.545 30.252h-0.444v0.544h0.444c0.191 0 0.291-0.098 0.291-0.273s-0.1-0.271-0.291-0.271z"></path>
<path d="M49.751 30.992v-0.707h-0.752v0.707h-0.226v-1.557h0.226v0.654h0.752v-0.654h0.228v1.557h-0.228z"></path>
<path d="M51.872 30.992v-1.206l-0.8 1.206h-0.226v-1.557h0.226v1.198l0.8-1.198h0.228v1.557h-0.228z"></path>
<path d="M53.813 30.992l-0.374-0.604-0.379 0.604h-0.276l0.529-0.795-0.506-0.762h0.276l0.359 0.577 0.351-0.577h0.276l-0.506 0.762 0.529 0.795h-0.276z"></path>
<path d="M56.513 31.012c-0.095 0-0.178-0.015-0.251-0.050-0.065-0.033-0.105-0.063-0.181-0.153v0.88h-0.228v-2.254h0.228v0.183c0.073-0.085 0.11-0.118 0.178-0.153 0.070-0.035 0.153-0.050 0.251-0.050 0.401 0 0.582 0.251 0.582 0.8s-0.183 0.795-0.579 0.795zM56.473 29.618c-0.273 0-0.389 0.181-0.389 0.594s0.118 0.594 0.394 0.594 0.389-0.178 0.389-0.592-0.113-0.599-0.391-0.599z"></path>
<path d="M57.99 29.004c-0.085 0-0.155-0.070-0.155-0.155s0.070-0.155 0.155-0.155 0.158 0.070 0.158 0.153c0 0.088-0.070 0.158-0.158 0.158zM57.875 30.992v-1.557h0.228v1.557h-0.228z"></path>
<path d="M58.973 30.992v-1.557h0.226v1.361h0.639v-1.361h0.228v1.361h0.639v-1.361h0.228v1.557h-1.958z"></path>
<path d="M61.944 30.275c0.008 0.143 0.015 0.206 0.048 0.281 0.073 0.173 0.211 0.256 0.424 0.256 0.073 0 0.143-0.015 0.198-0.038 0.070-0.028 0.11-0.058 0.196-0.138l0.155 0.135c-0.113 0.11-0.168 0.148-0.263 0.188-0.085 0.035-0.186 0.055-0.301 0.055-0.449 0-0.687-0.278-0.687-0.807 0-0.491 0.243-0.787 0.639-0.787s0.639 0.288 0.639 0.752v0.105h-1.051zM62.736 29.896c-0.053-0.181-0.198-0.288-0.384-0.288-0.165 0-0.301 0.088-0.364 0.233-0.033 0.070-0.043 0.12-0.048 0.258h0.822c-0.008-0.12-0.010-0.148-0.028-0.206z"></path>
<path d="M64.755 30.992v-0.707h-0.752v0.707h-0.226v-1.557h0.226v0.654h0.752v-0.654h0.228v1.557h-0.228z"></path>
<path d="M66.542 30.992h-0.692v-1.557h0.223v0.617h0.469c0.298 0 0.494 0.186 0.494 0.471s-0.196 0.469-0.494 0.469zM66.517 30.252h-0.444v0.544h0.444c0.191 0 0.291-0.098 0.291-0.273s-0.1-0.271-0.291-0.271z"></path>
<path d="M14.279 13.564v4.215h3.55v-10.693h-10.698v3.55h4.137c-2.633 1.153-4.473 3.766-4.473 6.8 0 0.537 0.060 1.061 0.168 1.567l3.746 0.030c-0.226-0.486-0.356-1.028-0.356-1.597 0-2.134 1.76-3.869 3.926-3.871z"></path>
</symbol>
<symbol id="icon-circle-up" viewBox="0 0 32 32">
<path d="M0 16c0 8.837 7.163 16 16 16s16-7.163 16-16-7.163-16-16-16-16 7.163-16 16zM29 16c0 7.18-5.82 13-13 13s-13-5.82-13-13 5.82-13 13-13 13 5.82 13 13z"></path>
<path d="M22.086 20.914l2.829-2.829-8.914-8.914-8.914 8.914 2.828 2.828 6.086-6.086z"></path>
</symbol>
<symbol id="icon-circle-down" viewBox="0 0 32 32">
<path d="M32 16c0-8.837-7.163-16-16-16s-16 7.163-16 16 7.163 16 16 16 16-7.163 16-16zM3 16c0-7.18 5.82-13 13-13s13 5.82 13 13-5.82 13-13 13-13-5.82-13-13z"></path>
<path d="M9.914 11.086l-2.829 2.829 8.914 8.914 8.914-8.914-2.828-2.828-6.086 6.086z"></path>
</symbol>
<symbol id="icon-facebook" viewBox="0 0 32 32">
<path d="M15.939 32l0.014 0h-0.005l-0.009-0zM16.052 32h-0.005l0.014-0-0.009 0zM15.89 32l0.015 0h-0.009l-0.007-0zM16.103 32h-0.009l0.015-0-0.007 0zM15.843 31.999l0.010 0-0.008-0h-0.002zM16.155 31.999l-0.008 0 0.010-0h-0.002zM16.207 31.999l-0.004 0 0.014-0-0.010 0zM15.783 31.999l0.014 0-0.004-0-0.010-0zM16.258 31.998v0zM15.733 31.998v0zM16.31 31.997l-0.011 0 0.016-0-0.005 0zM15.686 31.997l0.016 0-0.011-0-0.005-0zM15.627 31.996v0zM16.361 31.996l-0.003 0 0.014-0-0.012 0zM15.576 31.994l0.019 0-0.008-0-0.011-0zM16.413 31.995l-0.008 0 0.019-0-0.012 0zM16.464 31.993l-0.013 0 0.020-0.001-0.007 0zM15.529 31.993l0.020 0.001-0.013-0-0.007-0zM15.484 31.992l0.014 0-0.014-0zM16.515 31.992l-0.013 0 0.013-0zM16.567 31.99v0zM15.419 31.99v0zM15.372 31.988l0.023 0.001-0.013-0-0.010-0zM16.618 31.988l-0.013 0 0.023-0.001-0.010 0zM15.326 31.986l0.022 0.001-0.017-0.001-0.005-0zM16.669 31.986l-0.017 0.001 0.022-0.001-0.005 0zM15.261 31.983l0.024 0.001-0.006-0-0.018-0.001zM16.721 31.984l-0.006 0 0.024-0.001-0.018 0.001zM15.215 31.981l0.025 0.001-0.012-0-0.013-0.001zM16.772 31.982l-0.012 0 0.025-0.001-0.013 0.001zM15.17 31.979l0.025 0.001-0.017-0.001-0.007-0zM16.823 31.979l-0.017 0.001 0.025-0.001-0.007 0zM16.874 31.977l-0.023 0.001 0.020-0.001 0.024-0.001-0.021 0.001zM15.129 31.977l0.020 0.001-0.023-0.001-0.021-0.001 0.024 0.001zM16.925 31.974v0zM15.060 31.973v0zM15.015 31.97l0.025 0.002-0.016-0.001-0.009-0.001zM16.976 31.971l-0.016 0.001 0.025-0.002-0.009 0.001zM14.972 31.967l0.023 0.001-0.021-0.001-0.021-0.001 0.020 0.001zM17.027 31.968l-0.021 0.001 0.043-0.003-0.021 0.001zM17.078 31.964l-0.008 0 0.024-0.002-0.017 0.001zM14.906 31.963v0zM14.861 31.96l0.024 0.002-0.013-0.001-0.011-0.001zM17.129 31.961l-0.013 0.001 0.024-0.002-0.011 0.001zM14.816 31.957l0.022 0.002-0.017-0.001-0.005-0zM17.18 31.957l-0.017 0.001 0.022-0.002-0.005 0zM14.755 31.952l0.019 0.001-0.005-0-0.014-0.001zM17.23 31.953l-0.005 0 0.019-0.001-0.015 0.001zM17.281 31.949l-0.009 0.001 0.019-0.002-0.010 0.001zM14.709 31.948l0.019 0.002-0.009-0.001-0.010-0.001zM14.663 31.945l0.017 0.001-0.012-0.001-0.005-0zM17.332 31.945l-0.012 0.001 0.017-0.001-0.005 0zM14.614 31.941l0.005 0-0.001-0-0.004-0zM17.382 31.941l-0.001 0 0.005-0-0.004 0zM17.433 31.937l-0.005 0 0.011-0.001-0.007 0.001zM14.56 31.936l0.011 0.001-0.005-0-0.007-0.001zM14.513 31.932l0.008 0.001-0.005-0-0.003-0zM17.483 31.932l-0.005 0 0.008-0.001-0.003 0zM13.5 31.805c-7.645-1.202-13.5-7.825-13.5-15.805 0-8.831 7.169-16 16-16s16 7.169 16 16c0 7.98-5.855 14.604-13.5 15.805v-11.18h3.728l0.709-4.625h-4.438v-3.001c0-1.265 0.62-2.499 2.607-2.499h2.018v-3.938c0 0-1.831-0.313-3.582-0.313-3.655 0-6.043 2.215-6.043 6.225v3.525h-4.063v4.625h4.063v11.18z"></path>
</symbol>
<symbol id="icon-instagram" viewBox="0 0 32 32">
<path d="M16 0c8.831 0 16 7.169 16 16s-7.169 16-16 16c-8.831 0-16-7.169-16-16s7.169-16 16-16zM16 6c-2.716 0-3.056 0.011-4.123 0.060-1.064 0.049-1.791 0.218-2.427 0.465-0.658 0.256-1.215 0.598-1.771 1.153s-0.898 1.114-1.153 1.771c-0.247 0.636-0.416 1.363-0.465 2.427-0.049 1.067-0.060 1.407-0.060 4.123s0.011 3.056 0.060 4.123c0.049 1.064 0.218 1.791 0.465 2.427 0.256 0.658 0.598 1.215 1.153 1.771s1.114 0.898 1.771 1.153c0.636 0.247 1.363 0.416 2.427 0.465 1.067 0.049 1.407 0.060 4.123 0.060s3.056-0.012 4.123-0.060c1.064-0.049 1.791-0.218 2.427-0.465 0.658-0.256 1.215-0.598 1.771-1.153s0.898-1.114 1.153-1.771c0.247-0.636 0.416-1.363 0.465-2.427 0.049-1.067 0.060-1.407 0.060-4.123s-0.012-3.056-0.060-4.123c-0.049-1.064-0.218-1.791-0.465-2.427-0.256-0.658-0.598-1.215-1.153-1.771s-1.114-0.898-1.771-1.153c-0.636-0.247-1.363-0.416-2.427-0.465-1.067-0.049-1.407-0.060-4.123-0.060zM16 7.802c2.67 0 2.986 0.010 4.041 0.058 0.975 0.045 1.504 0.207 1.857 0.344 0.467 0.181 0.8 0.398 1.15 0.748s0.567 0.683 0.748 1.15c0.137 0.352 0.3 0.882 0.344 1.857 0.048 1.055 0.058 1.371 0.058 4.041s-0.010 2.986-0.058 4.041c-0.044 0.975-0.207 1.504-0.344 1.857-0.181 0.467-0.398 0.8-0.748 1.15s-0.683 0.567-1.15 0.748c-0.352 0.137-0.882 0.3-1.857 0.344-1.054 0.048-1.371 0.058-4.041 0.058s-2.986-0.010-4.041-0.058c-0.975-0.044-1.504-0.207-1.857-0.344-0.467-0.181-0.8-0.398-1.15-0.748s-0.567-0.683-0.748-1.15c-0.137-0.352-0.3-0.882-0.344-1.857-0.048-1.055-0.058-1.371-0.058-4.041s0.010-2.986 0.058-4.041c0.045-0.975 0.207-1.504 0.344-1.857 0.181-0.467 0.398-0.8 0.748-1.15s0.683-0.567 1.15-0.748c0.352-0.137 0.882-0.3 1.857-0.344 1.055-0.048 1.371-0.058 4.041-0.058zM16 10.865c-2.836 0-5.135 2.299-5.135 5.135s2.299 5.135 5.135 5.135c2.836 0 5.135-2.299 5.135-5.135s-2.299-5.135-5.135-5.135zM16 19.333c-1.841 0-3.333-1.492-3.333-3.333s1.492-3.333 3.333-3.333c1.841 0 3.333 1.492 3.333 3.333s-1.492 3.333-3.333 3.333zM22.538 10.662c0 0.663-0.537 1.2-1.2 1.2s-1.2-0.537-1.2-1.2 0.537-1.2 1.2-1.2c0.663 0 1.2 0.537 1.2 1.2z"></path>
</symbol>
</svg>